<svg width="400" height="391" viewBox="0 0 400 391" fill="none" xmlns="http://www.w3.org/2000/svg">
<g clip-path="url(#clip0_660_297)">
<path d="M123.634 365.954L124.062 356.324C128.526 353.938 133.506 352.677 138.568 352.652C131.601 358.348 132.472 369.328 127.748 376.988C126.257 379.366 124.249 381.378 121.874 382.874C119.5 384.371 116.819 385.314 114.03 385.633L108.2 389.203C107.4 384.743 107.576 380.162 108.717 375.777C109.857 371.392 111.935 367.306 114.807 363.801C116.437 361.851 118.307 360.114 120.372 358.63C121.768 362.312 123.634 365.954 123.634 365.954Z" fill="#F2F2F2"/>
<path d="M364.632 225.643C380.351 213.671 387.859 193.552 383.158 174.36C383.042 173.883 382.918 173.407 382.789 172.932C379.673 161.54 371.963 150.713 360.728 147.073C351.293 144.016 340.996 146.367 331.154 145.151C311.833 142.765 296.854 127.132 286.314 110.765C275.775 94.3972 267.675 76.076 253.67 62.554C230.585 40.2652 192.928 35.4664 164.307 49.9747C135.685 64.4831 117.453 96.6712 118.231 128.751C119.008 160.83 138.052 191.5 165.709 207.773C175.869 213.75 187.62 217.985 199.315 216.503C209.462 215.218 218.682 209.765 228.782 208.147C244.66 205.602 260.438 212.781 274.172 221.147C287.906 229.513 301.172 239.429 316.779 243.308C331.933 247.074 350.707 236.249 364.632 225.643Z" fill="#F2F2F2"/>
<path d="M240.256 82.3794H83.6585C80.3926 82.3832 77.2616 83.6822 74.9523 85.9916C72.6429 88.3009 71.3439 91.432 71.3401 94.6979V172.636C71.3439 175.902 72.6429 179.033 74.9523 181.342C77.2616 183.652 80.3926 184.951 83.6585 184.955H240.256C243.522 184.952 246.653 183.653 248.963 181.343C251.273 179.034 252.571 175.902 252.574 172.636V94.6979C252.571 91.4316 251.273 88.3 248.963 85.9904C246.653 83.6809 243.522 82.3822 240.256 82.3794Z" fill="white"/>
<path d="M240.256 185.562H83.6613C80.2347 185.558 76.9497 184.195 74.5267 181.772C72.1038 179.349 70.7409 176.064 70.737 172.637V94.6968C70.7409 91.2702 72.1038 87.9851 74.5267 85.5622C76.9497 83.1392 80.2347 81.7763 83.6613 81.7725H240.256C243.683 81.7763 246.968 83.1392 249.391 85.5622C251.814 87.9851 253.177 91.2702 253.181 94.6968V172.637C253.177 176.064 251.814 179.349 249.391 181.772C246.968 184.195 243.683 185.558 240.256 185.562ZM83.6613 82.9837C80.5559 82.9873 77.5787 84.2225 75.3829 86.4183C73.187 88.6142 71.9518 91.5914 71.9483 94.6968V172.637C71.9518 175.743 73.187 178.72 75.3829 180.916C77.5787 183.112 80.5559 184.347 83.6613 184.35H240.256C243.362 184.347 246.339 183.112 248.535 180.916C250.731 178.72 251.966 175.743 251.969 172.637V94.6968C251.966 91.5914 250.731 88.6142 248.535 86.4183C246.339 84.2225 243.362 82.9873 240.256 82.9837H83.6613Z" fill="#CCCCCC"/>
<path d="M247.46 207.108H97.392C96.0949 207.108 94.8508 206.593 93.9336 205.675C93.0164 204.758 92.5011 203.514 92.5011 202.217C92.5011 200.92 93.0164 199.676 93.9336 198.759C94.8508 197.841 96.0949 197.326 97.392 197.326H247.46C248.757 197.326 250.001 197.841 250.918 198.759C251.835 199.676 252.35 200.92 252.35 202.217C252.35 203.514 251.835 204.758 250.918 205.675C250.001 206.593 248.757 207.108 247.46 207.108Z" fill="#E6E6E6"/>
<path d="M145.501 160.47C144.612 160.467 143.738 160.24 142.96 159.808C142.129 159.36 141.435 158.693 140.954 157.88C140.473 157.067 140.223 156.138 140.231 155.193V111.696C140.231 110.753 140.484 109.827 140.964 109.015C141.444 108.203 142.134 107.535 142.96 107.081C143.787 106.627 144.72 106.403 145.663 106.433C146.606 106.463 147.523 106.746 148.319 107.251L189.581 129C190.329 129.476 190.945 130.132 191.372 130.909C191.799 131.686 192.023 132.558 192.023 133.445C192.023 134.331 191.799 135.203 191.372 135.98C190.945 136.757 190.329 137.414 189.581 137.889L148.319 159.638C147.478 160.178 146.5 160.467 145.501 160.47Z" fill="#F2F2F2"/>
<path d="M387.815 138.783H322.375C321.01 138.782 319.702 138.239 318.737 137.274C317.772 136.309 317.229 135 317.227 133.636V101.065C317.229 99.7002 317.772 98.3918 318.737 97.4267C319.702 96.4616 321.01 95.9188 322.375 95.9172H387.815C389.179 95.9188 390.488 96.4616 391.453 97.4267C392.418 98.3918 392.961 99.7002 392.962 101.065V133.636C392.961 135 392.418 136.309 391.453 137.274C390.488 138.239 389.179 138.782 387.815 138.783Z" fill="white"/>
<path d="M387.815 139.389H322.375C320.85 139.387 319.387 138.781 318.309 137.702C317.23 136.624 316.623 135.161 316.622 133.636V101.065C316.623 99.5398 317.23 98.0774 318.309 96.9988C319.387 95.9202 320.85 95.3135 322.375 95.3118H387.815C389.34 95.3135 390.802 95.9202 391.881 96.9988C392.96 98.0774 393.566 99.5398 393.568 101.065V133.636C393.566 135.161 392.96 136.624 391.881 137.702C390.802 138.781 389.34 139.387 387.815 139.389ZM322.375 96.523C321.171 96.5243 320.016 97.0033 319.165 97.8549C318.313 98.7064 317.834 99.861 317.833 101.065V133.636C317.834 134.84 318.313 135.995 319.165 136.846C320.016 137.698 321.171 138.177 322.375 138.178H387.815C389.019 138.177 390.173 137.698 391.025 136.846C391.877 135.995 392.355 134.84 392.357 133.636V101.065C392.355 99.861 391.877 98.7064 391.025 97.8549C390.173 97.0033 389.019 96.5243 387.815 96.523H322.375Z" fill="#CCCCCC"/>
<path d="M377.064 154.721H332.981C331.685 154.72 330.442 154.204 329.526 153.287C328.61 152.37 328.096 151.127 328.096 149.83C328.096 148.534 328.61 147.291 329.526 146.374C330.442 145.457 331.685 144.941 332.981 144.939H377.064C378.361 144.939 379.605 145.455 380.522 146.372C381.439 147.289 381.955 148.533 381.955 149.83C381.955 151.127 381.439 152.371 380.522 153.289C379.605 154.206 378.361 154.721 377.064 154.721Z" fill="#E6E6E6"/>
<path d="M348.058 128.941C347.687 128.94 347.321 128.845 346.997 128.665C346.649 128.477 346.359 128.199 346.158 127.859C345.957 127.519 345.853 127.131 345.856 126.736V108.559C345.856 108.165 345.962 107.778 346.162 107.439C346.363 107.1 346.651 106.821 346.997 106.631C347.342 106.441 347.732 106.347 348.126 106.36C348.52 106.373 348.903 106.491 349.236 106.702L366.479 115.791C366.792 115.989 367.049 116.264 367.227 116.588C367.406 116.913 367.499 117.277 367.499 117.648C367.499 118.018 367.406 118.383 367.227 118.707C367.049 119.032 366.792 119.306 366.479 119.505L349.236 128.594C348.885 128.82 348.476 128.94 348.058 128.941Z" fill="#FA7751"/>
<path d="M346.026 278.899H280.587C279.222 278.897 277.914 278.354 276.949 277.389C275.984 276.424 275.441 275.116 275.439 273.751V241.181C275.441 239.816 275.983 238.507 276.949 237.542C277.914 236.577 279.222 236.034 280.587 236.033H346.026C347.391 236.034 348.7 236.577 349.665 237.542C350.63 238.507 351.173 239.816 351.174 241.181V273.751C351.173 275.116 350.63 276.424 349.665 277.389C348.7 278.354 347.391 278.897 346.026 278.899Z" fill="white"/>
<path d="M346.026 279.505H280.587C279.062 279.503 277.599 278.896 276.521 277.818C275.442 276.739 274.835 275.277 274.833 273.751V241.181C274.835 239.655 275.442 238.193 276.521 237.114C277.599 236.036 279.062 235.429 280.587 235.427H346.026C347.552 235.429 349.014 236.036 350.093 237.114C351.171 238.193 351.778 239.655 351.78 241.181V273.751C351.778 275.277 351.171 276.739 350.093 277.818C349.014 278.896 347.552 279.503 346.026 279.505ZM280.587 236.639C279.383 236.64 278.228 237.119 277.377 237.97C276.525 238.822 276.046 239.976 276.045 241.181V273.751C276.046 274.955 276.525 276.11 277.377 276.962C278.228 277.813 279.383 278.292 280.587 278.293H346.026C347.231 278.292 348.385 277.813 349.237 276.962C350.088 276.11 350.567 274.955 350.569 273.751V241.181C350.567 239.976 350.088 238.822 349.237 237.97C348.385 237.119 347.231 236.64 346.026 236.639H280.587Z" fill="#CCCCCC"/>
<path d="M335.276 294.924H291.193C289.897 294.922 288.654 294.406 287.738 293.489C286.822 292.572 286.307 291.329 286.307 290.033C286.307 288.737 286.822 287.494 287.738 286.576C288.654 285.659 289.897 285.144 291.193 285.142H335.276C336.573 285.142 337.817 285.657 338.734 286.575C339.651 287.492 340.166 288.736 340.166 290.033C340.166 291.33 339.651 292.574 338.734 293.491C337.817 294.409 336.573 294.924 335.276 294.924Z" fill="#E6E6E6"/>
<path d="M306.111 270.052C305.739 270.051 305.374 269.956 305.049 269.776C304.702 269.589 304.412 269.31 304.211 268.97C304.01 268.63 303.905 268.242 303.908 267.848V249.67C303.908 249.276 304.014 248.889 304.215 248.55C304.416 248.211 304.704 247.932 305.049 247.742C305.395 247.552 305.785 247.459 306.179 247.471C306.573 247.484 306.956 247.602 307.289 247.813L324.531 256.902C324.844 257.1 325.102 257.375 325.28 257.699C325.458 258.024 325.552 258.388 325.552 258.759C325.552 259.129 325.458 259.494 325.28 259.819C325.102 260.143 324.844 260.418 324.531 260.616L307.289 269.705C306.937 269.931 306.528 270.051 306.111 270.052Z" fill="#FA7751"/>
<path d="M123.815 166.213L90.3214 166.438C90.3214 166.438 71.2459 160.289 62.5949 161.574L59.2872 174.567L83.0488 182.44L124.403 176.44C125.331 176.909 126.367 177.125 127.405 177.066C128.443 177.008 129.447 176.677 130.317 176.107C131.187 175.537 131.891 174.747 132.358 173.819C132.826 172.89 133.041 171.855 132.981 170.816C132.922 169.778 132.59 168.774 132.018 167.905C131.447 167.036 130.657 166.333 129.728 165.866C128.799 165.4 127.763 165.186 126.725 165.247C125.687 165.308 124.683 165.641 123.815 166.213L123.815 166.213Z" fill="#A0616A"/>
<path d="M82.7652 183.698L43.0278 172.269L39.4101 158.79C38.4676 156.991 38.047 154.965 38.1957 152.94C38.3444 150.915 39.0565 148.972 40.2515 147.33C43.6439 142.736 46.2956 147.3 51.1101 150.372C59.5499 150.969 80.616 158.177 89.1674 166.523L88.4936 171.653L82.7652 183.698Z" fill="#3F3D56"/>
<path d="M117.339 172.695C116.45 172.693 115.576 172.465 114.799 172.034C113.968 171.585 113.274 170.919 112.793 170.106C112.312 169.293 112.062 168.364 112.069 167.419V123.921C112.069 122.978 112.323 122.052 112.803 121.241C113.283 120.429 113.972 119.761 114.799 119.307C115.626 118.853 116.559 118.629 117.502 118.659C118.444 118.689 119.362 118.971 120.158 119.477L161.42 141.226C162.168 141.701 162.784 142.358 163.211 143.135C163.638 143.912 163.862 144.784 163.862 145.67C163.862 146.557 163.638 147.429 163.211 148.206C162.784 148.983 162.168 149.639 161.42 150.115L120.158 171.863C119.317 172.404 118.339 172.693 117.339 172.695Z" fill="#FA7751"/>
<path d="M89.6196 382.205L98.0735 382.204L102.095 349.597L89.6183 349.598L89.6196 382.205Z" fill="#A0616A"/>
<path d="M87.4632 379.445L89.8427 379.444L99.1325 375.667L104.111 379.444H104.112C106.926 379.444 109.624 380.562 111.614 382.551C113.604 384.541 114.722 387.24 114.722 390.053V390.398L87.4637 390.399L87.4632 379.445Z" fill="#2F2E41"/>
<path d="M29.4202 374.246L37.4278 376.957L51.6951 347.363L39.8775 343.362L29.4202 374.246Z" fill="#A0616A"/>
<path d="M28.263 370.94L30.5168 371.703L40.5275 371.105L44.0319 376.279L44.0326 376.28C46.6976 377.182 48.895 379.106 50.1414 381.629C51.3877 384.152 51.581 387.066 50.6787 389.731L50.5681 390.058L24.7499 381.316L28.263 370.94Z" fill="#2F2E41"/>
<path d="M39.2191 241.755C39.2191 241.755 38.232 253.6 40.6998 264.952C43.1675 276.304 48.4784 313.986 48.4784 313.986C37.7214 331.667 31.4872 349.065 30.3096 366.676L45.4503 367.887L67.1296 316.449L69.3261 264.952L85.1199 299.995L84.3078 302.702C84.1157 303.342 84.1393 304.028 84.3748 304.653C84.6104 305.279 85.0449 305.81 85.6116 306.164C85.6116 306.164 84.1328 315.789 85.12 315.789C86.1071 315.789 88.5749 317.269 88.5749 317.269C82.4219 336.424 81.5958 354.768 87.2386 372.127L100.562 371.521L109.304 296.046L102.888 255.081L102.394 247.184L100.173 247.275L99.0425 243.976L96.9653 238.3L39.2191 241.755Z" fill="#2F2E41"/>
<path d="M38.366 244.243L38.278 244.119C33.5801 237.542 40.6458 221.737 41.7115 219.446L37.223 217.99L33.2981 184.777L30.4277 173.303C29.3461 168.966 29.4383 164.419 30.6947 160.129C31.9512 155.839 34.3266 151.96 37.5772 148.892L44.2123 142.636L52.276 130.704H65.2796L69.7382 139.126C74.061 140.125 77.8962 142.609 80.5759 146.145C83.2556 149.681 84.6098 154.045 84.4028 158.477L83.3923 180.565L87.3482 208.066L87.3507 213.043L94.2185 224.304L95.7146 231.285C96.3337 232.102 100.42 237.551 100.42 239.04C100.42 239.264 100.255 239.48 99.9009 239.72C97.116 241.606 81.7232 245.45 74.9105 242.724C67.6537 239.823 38.8066 244.175 38.5159 244.22L38.366 244.243Z" fill="#3F3D56"/>
<path d="M171.193 390.18C171.193 390.275 171.175 390.368 171.139 390.456C171.103 390.543 171.05 390.622 170.984 390.689C170.917 390.756 170.838 390.809 170.751 390.846C170.664 390.882 170.571 390.901 170.476 390.901H0.720698C0.529558 390.901 0.346243 390.825 0.211086 390.69C0.0759293 390.555 0 390.372 0 390.18C0 389.989 0.0759293 389.806 0.211086 389.671C0.346243 389.536 0.529558 389.46 0.720698 389.46H170.472C170.663 389.459 170.846 389.534 170.981 389.669C171.116 389.803 171.192 389.986 171.193 390.176V390.18Z" fill="#CCCCCC"/>
<path d="M60.4576 126.853C69.9688 126.853 77.6792 119.143 77.6792 109.631C77.6792 100.12 69.9688 92.4097 60.4576 92.4097C50.9464 92.4097 43.236 100.12 43.236 109.631C43.236 119.143 50.9464 126.853 60.4576 126.853Z" fill="#A0616A"/>
<path d="M124.387 122.853L97.8169 143.246C97.8169 143.246 78.8956 149.855 72.7732 156.101L77.9777 168.458L101.675 160.395L131.028 130.653C132.051 130.466 133.007 130.014 133.8 129.34C134.592 128.667 135.193 127.797 135.543 126.818C135.892 125.838 135.977 124.784 135.789 123.761C135.602 122.739 135.148 121.783 134.474 120.992C133.8 120.2 132.929 119.6 131.95 119.251C130.97 118.903 129.915 118.819 128.893 119.008C127.87 119.197 126.916 119.651 126.125 120.326C125.334 121.001 124.734 121.873 124.387 122.853Z" fill="#A0616A"/>
<path d="M102.209 161.569L65.2976 172.377L52.6067 167.873C50.7698 167.008 49.2116 165.647 48.108 163.942C47.0045 162.238 46.3996 160.259 46.3618 158.229C46.2939 152.518 51.1625 154.556 56.8555 154.101C63.9452 149.483 85.0925 142.517 96.948 144.01L99.507 148.508L102.209 161.569Z" fill="#3F3D56"/>
<path d="M72.2667 89.7477C71.0324 89.711 71.4561 87.3845 70.4617 86.6423C70.4568 86.6648 70.4518 86.6873 70.4466 86.7097C70.3162 87.2123 70.0279 87.6597 69.6242 87.9861C69.2204 88.3124 68.7225 88.5005 68.2038 88.5227C67.685 88.5448 67.1729 88.3998 66.7428 88.109C66.3127 87.8182 65.9874 87.3969 65.8147 86.9073C65.6498 86.3409 65.3512 85.8224 64.9442 85.3955C64.5372 84.9685 64.0336 84.6455 63.4757 84.4536C63.4138 86.61 61.7827 88.4815 59.8368 89.4129C57.8909 90.3443 55.6721 90.4993 53.515 90.5312C51.3579 90.5631 49.1698 90.4909 47.0781 91.0187C44.9863 91.5466 42.9517 92.7876 42.058 94.7511C41.1643 96.7146 41.802 99.4179 43.7562 100.332C42.2423 100.34 40.9577 101.589 40.4342 103.01C40.0052 104.467 39.8932 105.999 40.106 107.503C40.5314 113.072 41.5688 119.067 45.6238 122.908C48.7143 125.835 53.1379 127.014 57.3945 126.997C61.6511 126.98 60.9026 126.588 65.0183 125.502C65.0183 125.502 68.9311 114.285 67.9458 113.181C66.9605 112.078 66.1421 110.666 66.3205 109.197C66.4988 107.729 68.077 106.413 69.4466 106.972C69.2163 106.384 69.0428 106.271 68.9341 106.301C69.0033 106.134 69.0637 105.963 69.1151 105.789C69.3729 104.905 69.8371 104.094 70.4694 103.423C71.1016 102.753 71.884 102.242 72.7522 101.933C73.6291 101.648 74.5721 101.639 75.4545 101.906C76.337 102.173 77.1165 102.704 77.6885 103.427C82.1951 99.2001 79.3992 89.9595 72.2667 89.7477Z" fill="#2F2E41"/>
<path d="M363.781 20.8845H88.6485C88.3623 20.8784 88.09 20.7605 87.8898 20.556C87.6896 20.3514 87.5774 20.0766 87.5774 19.7904C87.5774 19.5042 87.6896 19.2294 87.8898 19.0249C88.09 18.8203 88.3623 18.7024 88.6485 18.6963H363.781C364.067 18.7024 364.339 18.8203 364.54 19.0249C364.74 19.2294 364.852 19.5042 364.852 19.7904C364.852 20.0766 364.74 20.3514 364.54 20.556C364.339 20.7605 364.067 20.8784 363.781 20.8845Z" fill="#CACACA"/>
<path d="M107.377 13.11C110.918 13.11 113.789 10.1752 113.789 6.55498C113.789 2.93476 110.918 0 107.377 0C103.836 0 100.965 2.93476 100.965 6.55498C100.965 10.1752 103.836 13.11 107.377 13.11Z" fill="#3F3D56"/>
<path d="M129.528 13.11C133.069 13.11 135.94 10.1752 135.94 6.55498C135.94 2.93476 133.069 0 129.528 0C125.987 0 123.116 2.93476 123.116 6.55498C123.116 10.1752 125.987 13.11 129.528 13.11Z" fill="#3F3D56"/>
<path d="M151.679 13.11C155.22 13.11 158.091 10.1752 158.091 6.55498C158.091 2.93476 155.22 0 151.679 0C148.137 0 145.267 2.93476 145.267 6.55498C145.267 10.1752 148.137 13.11 151.679 13.11Z" fill="#3F3D56"/>
<path d="M350.444 1.62476H334.709C334.397 1.63093 334.1 1.75917 333.882 1.98193C333.664 2.20469 333.541 2.5042 333.541 2.81616C333.541 3.12812 333.664 3.42764 333.882 3.6504C334.1 3.87316 334.397 4.00139 334.709 4.00757H350.444C350.756 4.00139 351.053 3.87316 351.271 3.6504C351.49 3.42764 351.612 3.12812 351.612 2.81616C351.612 2.5042 351.49 2.20469 351.271 1.98193C351.053 1.75917 350.756 1.63093 350.444 1.62476Z" fill="#3F3D56"/>
<path d="M350.444 6.09692H334.709C334.397 6.10309 334.1 6.23132 333.882 6.45408C333.664 6.67684 333.541 6.97637 333.541 7.28833C333.541 7.60029 333.664 7.8998 333.882 8.12256C334.1 8.34532 334.397 8.47356 334.709 8.47973H350.444C350.756 8.47356 351.053 8.34532 351.271 8.12256C351.49 7.8998 351.612 7.60029 351.612 7.28833C351.612 6.97637 351.49 6.67684 351.271 6.45408C351.053 6.23132 350.756 6.10309 350.444 6.09692Z" fill="#3F3D56"/>
<path d="M350.444 10.5632H334.709C334.397 10.5694 334.1 10.6976 333.882 10.9204C333.664 11.1432 333.541 11.4427 333.541 11.7546C333.541 12.0666 333.664 12.3661 333.882 12.5889C334.1 12.8116 334.397 12.9399 334.709 12.946H350.444C350.756 12.9399 351.053 12.8116 351.271 12.5889C351.49 12.3661 351.612 12.0666 351.612 11.7546C351.612 11.4427 351.49 11.1432 351.271 10.9204C351.053 10.6976 350.756 10.5694 350.444 10.5632Z" fill="#3F3D56"/>
<path d="M217.466 82.3794V98.8282C217.466 99.6458 216.037 100.33 214.111 100.518C214.094 100.517 214.078 100.519 214.062 100.524C213.741 100.548 213.402 100.566 213.057 100.566C211.995 100.586 210.939 100.414 209.938 100.058C209.847 100.021 209.756 99.9789 209.665 99.9426C209.581 99.8941 209.49 99.8517 209.405 99.8033C208.927 99.5187 208.648 99.1855 208.648 98.8282V82.3794H217.466Z" fill="#CCCCCC"/>
<path d="M351.324 284.74C355.463 284.74 358.817 281.386 358.817 277.247C358.817 273.109 355.463 269.754 351.324 269.754C347.186 269.754 343.831 273.109 343.831 277.247C343.831 281.386 347.186 284.74 351.324 284.74Z" fill="#3F3D56"/>
<path d="M350.763 280.242C350.747 280.242 350.731 280.242 350.715 280.241C350.574 280.234 350.436 280.197 350.311 280.132C350.185 280.067 350.076 279.975 349.989 279.863L348.737 278.254C348.658 278.152 348.599 278.036 348.565 277.912C348.531 277.787 348.522 277.658 348.538 277.53C348.554 277.402 348.595 277.279 348.658 277.167C348.722 277.055 348.807 276.957 348.909 276.878L348.954 276.843C349.055 276.764 349.171 276.705 349.296 276.671C349.42 276.637 349.55 276.627 349.677 276.643C349.805 276.659 349.929 276.7 350.04 276.764C350.152 276.828 350.251 276.913 350.33 277.015C350.393 277.096 350.473 277.162 350.564 277.21C350.656 277.257 350.756 277.284 350.859 277.289C350.962 277.294 351.065 277.277 351.16 277.239C351.256 277.201 351.342 277.142 351.413 277.067L353.955 274.383C354.134 274.195 354.381 274.085 354.64 274.078C354.9 274.071 355.152 274.167 355.341 274.345L355.383 274.385C355.476 274.474 355.552 274.58 355.604 274.697C355.656 274.815 355.685 274.942 355.689 275.07C355.692 275.199 355.67 275.327 355.624 275.448C355.578 275.568 355.509 275.678 355.42 275.771L351.475 279.936C351.383 280.033 351.273 280.11 351.151 280.162C351.028 280.215 350.896 280.242 350.763 280.242Z" fill="white"/>
<path d="M392.507 145.446C396.645 145.446 400 142.092 400 137.953C400 133.815 396.645 130.46 392.507 130.46C388.369 130.46 385.014 133.815 385.014 137.953C385.014 142.092 388.369 145.446 392.507 145.446Z" fill="#3F3D56"/>
<path d="M391.946 140.948C391.93 140.948 391.914 140.947 391.898 140.947C391.757 140.94 391.619 140.903 391.494 140.837C391.368 140.772 391.258 140.681 391.172 140.569L389.919 138.959C389.84 138.858 389.782 138.742 389.748 138.617C389.714 138.493 389.704 138.364 389.72 138.236C389.736 138.108 389.777 137.985 389.841 137.873C389.905 137.761 389.99 137.663 390.091 137.584L390.136 137.548C390.238 137.469 390.354 137.411 390.478 137.377C390.602 137.343 390.732 137.333 390.86 137.349C390.988 137.365 391.111 137.406 391.223 137.47C391.335 137.534 391.433 137.619 391.512 137.72C391.576 137.802 391.656 137.868 391.747 137.916C391.838 137.963 391.939 137.99 392.042 137.995C392.145 138 392.247 137.983 392.343 137.945C392.438 137.906 392.524 137.848 392.595 137.773L395.138 135.089C395.317 134.9 395.563 134.791 395.823 134.784C396.083 134.777 396.335 134.873 396.524 135.051L396.566 135.091C396.659 135.18 396.734 135.286 396.787 135.403C396.839 135.521 396.868 135.648 396.871 135.776C396.875 135.905 396.853 136.033 396.807 136.153C396.761 136.274 396.692 136.384 396.603 136.477L392.657 140.642C392.566 140.738 392.456 140.816 392.333 140.868C392.211 140.921 392.079 140.948 391.946 140.948Z" fill="white"/>
</g>
<defs>
<clipPath id="clip0_660_297">
<rect width="400" height="390.901" fill="white"/>
</clipPath>
</defs>
</svg>
