<svg width="400" height="253" viewBox="0 0 400 253" fill="none" xmlns="http://www.w3.org/2000/svg">
<g clip-path="url(#clip0_667_175)">
<path d="M86.7071 168.474C85.9751 173.867 82.3086 178.736 77.5928 181.914C76.4693 182.674 75.2835 183.337 74.0483 183.897C72.6903 184.51 71.2896 185.024 69.8572 185.434C66.3827 186.396 62.8125 186.971 59.2116 187.148H59.2056C56.1979 187.344 53.172 187.368 50.1766 187.386L35.4253 187.478C33.6622 187.49 31.9053 187.502 30.1422 187.514C24.8773 187.545 19.4417 187.545 14.5795 185.526C14.5068 185.499 14.4355 185.468 14.3659 185.434C9.58914 183.372 5.52002 178.839 5.6359 173.654C5.68251 171.827 6.1994 170.043 7.13665 168.474C7.75706 167.42 8.50268 166.445 9.35727 165.57C12.0049 162.825 15.6775 160.672 19.1183 158.939C22.9922 156.993 27.2138 154.65 30.0262 151.496C30.3678 151.112 30.6851 150.722 30.9779 150.319C31.8259 149.18 32.4643 147.899 32.863 146.536C33.0382 145.92 33.1566 145.289 33.2168 144.651C33.6073 140.625 31.649 136.922 29.1538 133.609C28.9098 133.28 28.6536 132.95 28.3912 132.621C27.83 131.919 27.2504 131.23 26.677 130.571C26.4329 130.29 26.1889 130.004 25.9388 129.717C25.2555 128.924 24.5661 128.113 23.9073 127.283C23.6022 126.892 23.3033 126.502 23.0105 126.105C21.8113 124.544 20.8303 122.826 20.0944 120.999C19.5717 119.663 19.2808 118.248 19.2342 116.814C19.1 111.635 24.8895 106.419 29.2697 108.865C30.9291 108.706 32.5946 108.542 34.254 108.371C34.6444 108.334 35.0287 108.292 35.4192 108.255C35.5168 108.243 35.6144 108.237 35.712 108.224C38.3475 107.962 40.9708 107.7 43.6001 107.431H43.6062C44.198 107.383 44.7776 107.322 45.3571 107.261H45.3632C49.5787 106.84 53.7902 106.419 57.9976 105.998C58.3881 105.961 58.7785 105.918 59.1689 105.882C60.0352 105.79 60.8954 105.705 61.7617 105.62C64.1898 105.382 67.0448 105.29 68.6249 107.157C70.3453 109.194 69.4546 112.416 67.7525 114.472C66.0505 116.521 63.6895 117.973 62.0911 120.096C60.7996 121.845 60.0487 123.934 59.9315 126.105C59.9071 126.49 59.8949 126.886 59.9071 127.283C59.916 128.099 59.9915 128.913 60.1328 129.717C60.3043 130.705 60.5614 131.677 60.9015 132.621C61.4988 134.307 62.3261 135.902 63.3601 137.361C66.9472 142.388 72.2609 145.853 76.9767 149.837C77.1658 149.996 77.3488 150.154 77.5318 150.319C77.9772 150.697 78.4103 151.094 78.8435 151.496C82.8089 155.199 86.2009 159.708 86.7621 165.027C86.7804 165.204 86.7987 165.387 86.8048 165.57C86.8733 166.539 86.8406 167.512 86.7071 168.474Z" fill="#F2F2F2"/>
<path d="M47.1892 76.8328C48.208 75.5883 49.2207 74.3316 50.2396 73.081C49.0102 70.0267 47.2875 67.1951 45.1402 64.6993C44.8751 64.401 44.5294 64.1856 44.1447 64.0791C43.76 63.9726 43.3528 63.9796 42.972 64.0992C42.5912 64.2187 42.253 64.4458 41.9982 64.7531C41.7435 65.0603 41.583 65.4347 41.536 65.8311C40.6458 72.3961 35.8122 78.6826 34.9697 85.5263C34.7299 87.4811 34.8311 89.4626 35.2686 91.3829V91.3856C30.142 80.226 28.138 67.8849 29.4698 55.6766C30.9329 42.7899 36.0059 30.5784 44.1045 20.4483C47.4036 18.6477 50.0709 15.8783 51.7464 12.5139C51.9736 12.0501 52.1819 11.5729 52.3648 11.0859C52.4623 10.8205 52.4946 10.5356 52.4589 10.2551C52.4232 9.97461 52.3207 9.70683 52.1598 9.47428C51.999 9.24174 51.7846 9.05125 51.5348 8.91888C51.285 8.78651 51.007 8.71613 50.7242 8.71368C49.5426 8.72325 48.3616 8.6538 47.1892 8.50579C47.8153 7.74098 49.3446 5.86105 50.4956 4.4447C50.7203 4.17492 50.8847 3.86016 50.9776 3.52158C51.0706 3.183 51.09 2.82844 51.0346 2.48174C50.9791 2.13503 50.8501 1.80421 50.6562 1.5115C50.4623 1.21879 50.208 0.970988 49.9104 0.78473L49.8857 0.770199C47.0733 -0.876971 43.1933 0.263845 41.1618 2.80781C39.1242 5.35177 38.7399 8.92064 39.4475 12.0991C40.1434 14.8036 41.2946 17.37 42.8517 19.6883L42.854 19.6919C42.6992 19.8857 42.5381 20.0742 42.3856 20.2698C38.1842 25.6713 34.797 31.6592 32.3318 38.0428C32.234 38.2952 32.1472 38.5517 32.0524 38.8052L32.0536 38.7893L32.444 33.7014C33.7479 31.3776 34.5116 28.79 34.6785 26.1307C34.8454 23.4713 34.4111 20.8085 33.4079 18.34C31.7535 14.3492 28.6501 10.9892 25.9209 7.53886C22.649 3.40235 15.949 5.22838 15.3724 10.4708C15.3668 10.5214 15.3614 10.5721 15.3561 10.6227C17.6445 11.9103 19.6491 13.6472 21.2493 15.729C19.2727 16.034 17.29 16.3451 15.3134 16.6502C15.4576 18.1092 15.7125 19.5551 16.076 20.9755C17.1631 25.0699 19.1114 28.8851 21.7908 32.1664C24.4703 35.4476 27.819 38.1193 31.6135 40.0029C29.562 45.8027 28.2791 51.8463 27.7975 57.9794C27.5204 61.5957 27.5363 65.2285 27.8452 68.8422C27.8371 68.7993 27.8343 68.7557 27.8259 68.7129C27.0449 64.6936 24.9009 61.067 21.7558 58.4455C16.8452 54.4117 9.80364 53.0568 4.68367 49.6231C4.22399 49.3202 3.68766 49.1542 3.13724 49.1446C2.58681 49.1351 2.045 49.2822 1.57505 49.5689C1.10509 49.8556 0.726374 50.27 0.483068 50.7639C0.239762 51.2577 0.141914 51.8105 0.200936 52.3578C0.24491 52.7368 0.296168 53.1148 0.354718 53.4918C3.54865 54.7912 6.33876 56.918 8.43805 59.6535C6.46145 59.9585 4.47874 60.2696 2.50213 60.5746C2.45943 60.5807 2.42284 60.5868 2.38013 60.593C3.66376 63.6578 5.46535 66.4788 7.70601 68.9325C10.474 71.9026 13.8194 74.276 17.5372 75.9073C21.255 77.5386 25.2668 78.3932 29.3266 78.419C29.3293 78.419 29.332 78.4188 29.3347 78.4188C30.8021 84.7997 33.148 90.9461 36.3053 96.6821C37.949 99.6674 39.8092 102.528 41.871 105.242L42.199 106.171C42.2722 106.104 42.3515 106.037 42.4247 105.969L42.4344 105.96C44.2581 108.304 46.2319 110.527 48.3434 112.616C49.0104 113.273 50.0383 112.246 49.3712 111.588C47.2722 109.513 45.3123 107.302 43.5042 104.969C47.2069 101.318 49.8906 96.7631 51.2889 91.7549C49.7135 91.854 48.1318 91.7597 46.5792 91.4743C47.8421 89.9248 49.1049 88.363 50.3677 86.8135C50.3959 86.7845 50.4224 86.7539 50.447 86.7219C51.0876 85.9288 51.7343 85.1419 52.3748 84.3488C52.3809 84.0438 52.3809 83.7448 52.3748 83.4398C52.3344 81.3127 52.0561 79.1969 51.5452 77.1317C50.0866 77.1972 48.6252 77.0969 47.1892 76.8328ZM28.137 72.4465C28.1431 72.2086 28.1431 71.9706 28.137 71.7266C28.1362 71.6591 28.127 71.5915 28.1253 71.524C28.1777 71.9455 28.2284 72.3671 28.2885 72.7876L28.2834 72.7759L28.137 72.4465Z" fill="#F2F2F2"/>
<path d="M137.388 146.715L130.323 177.801L125.808 182.746H122.551L135.975 126.226L136.639 135.828V135.835L137.388 146.715Z" fill="#3F3D56"/>
<path d="M171.389 178.484L129.942 178.222L126.263 178.197L123.64 178.179L120.583 178.161H120.559C120.116 178.161 119.69 178.337 119.375 178.649L114.214 183.81C114.1 183.922 114.007 184.055 113.94 184.2C113.907 184.241 113.881 184.286 113.86 184.334C113.749 184.594 113.702 184.877 113.726 185.159C113.749 185.44 113.842 185.712 113.995 185.949C114.148 186.187 114.357 186.383 114.604 186.52C114.851 186.658 115.127 186.733 115.41 186.738H169.102C169.424 186.737 169.739 186.645 170.011 186.472C170.283 186.299 170.501 186.053 170.639 185.762L171.06 184.847L171.926 182.986L172.908 180.888C173.013 180.664 173.067 180.421 173.067 180.174C173.065 179.728 172.887 179.302 172.574 178.986C172.26 178.67 171.835 178.49 171.389 178.484Z" fill="#3F3D56"/>
<path opacity="0.17" d="M171.06 184.846L170.636 185.764C170.498 186.054 170.281 186.3 170.01 186.472C169.738 186.645 169.424 186.737 169.103 186.739H115.409C115.127 186.734 114.85 186.659 114.603 186.522C114.356 186.384 114.147 186.188 113.994 185.951C113.841 185.713 113.749 185.442 113.726 185.16C113.703 184.879 113.75 184.596 113.862 184.337C113.881 184.288 113.907 184.243 113.939 184.203L171.06 184.846Z" fill="black"/>
<path opacity="0.17" d="M136.639 135.828V135.835L125.144 182.746H122.551L135.975 126.226L136.639 135.828Z" fill="black"/>
<path d="M150.745 144.424L134.474 20.6362C134.415 20.1722 134.173 19.7509 133.803 19.4648L122.603 5.44559L121.596 4.67082C121.223 4.38851 120.754 4.26366 120.29 4.32308L118.607 4.5488C118.142 4.60867 117.721 4.85056 117.435 5.22124C117.149 5.59193 117.022 6.06105 117.081 6.52541L133.944 134.785V134.791L134.975 142.637L136.201 151.952V151.964L138.104 166.459C138.135 166.708 138.218 166.947 138.35 167.159C138.482 167.372 138.658 167.554 138.867 167.692C139.072 167.833 139.305 167.929 139.55 167.973C139.795 168.017 140.047 168.009 140.288 167.948L141.356 167.68C141.765 167.574 142.123 167.328 142.369 166.984L142.844 166.307L143.064 165.99L150.434 145.675C150.692 145.312 150.803 144.865 150.745 144.424Z" fill="#3F3D56"/>
<path opacity="0.17" d="M122.6 5.44629L143.066 165.993L142.844 166.307L142.369 166.982C142.125 167.327 141.766 167.573 141.356 167.678L140.287 167.947C140.045 168.007 139.793 168.015 139.548 167.971C139.302 167.927 139.069 167.832 138.863 167.691C138.657 167.551 138.483 167.369 138.352 167.156C138.221 166.944 138.137 166.707 138.104 166.46L117.084 6.52749C117.023 6.06307 117.149 5.5935 117.434 5.22196C117.72 4.85043 118.141 4.60734 118.605 4.54614L120.293 4.32427C120.522 4.29333 120.755 4.30828 120.978 4.36826C121.202 4.42824 121.411 4.53204 121.593 4.67362L122.6 5.44629Z" fill="black"/>
<path d="M123.203 10.0376L134.064 25.5399L146.973 123.761L139.974 137.645L123.203 10.0376Z" fill="#FA7751"/>
<path d="M161.298 146.52L157.301 150.916C157.116 151.072 156.89 151.171 156.65 151.202C156.41 151.233 156.166 151.195 155.947 151.091C155.284 150.857 154.694 150.453 154.236 149.919C151.38 146.677 148.174 143.762 144.676 141.227C144.101 140.821 143.643 140.273 143.346 139.635C143.226 139.43 143.165 139.195 143.17 138.958C143.176 138.72 143.247 138.488 143.376 138.289C143.416 135.884 144.771 134.394 147.403 133.859C147.865 133.379 148.908 133.561 149.842 134.29C153.687 137.29 157.3 140.575 160.651 144.117C161.474 144.988 161.752 146.021 161.298 146.52Z" fill="#FA7751"/>
<path d="M151.026 137.059L147.662 140.758C147.546 140.886 147.266 140.821 147.037 140.612C146.808 140.403 146.716 140.131 146.832 140.003L150.196 136.304C150.312 136.176 150.592 136.241 150.821 136.45C151.05 136.658 151.142 136.931 151.026 137.059Z" fill="white"/>
<path d="M154.348 140.079L150.984 143.778C150.868 143.906 150.588 143.841 150.359 143.632C150.129 143.423 150.037 143.151 150.154 143.023L153.517 139.324C153.634 139.196 153.913 139.261 154.143 139.47C154.372 139.678 154.464 139.951 154.348 140.079Z" fill="white"/>
<path d="M157.67 143.099L154.306 146.798C154.19 146.926 153.91 146.861 153.68 146.652C153.451 146.443 153.359 146.171 153.475 146.043L156.839 142.344C156.955 142.216 157.235 142.281 157.465 142.49C157.694 142.698 157.786 142.971 157.67 143.099Z" fill="white"/>
<path d="M400 187.216C400 187.311 399.982 187.406 399.945 187.494C399.909 187.582 399.855 187.662 399.788 187.73C399.721 187.797 399.64 187.851 399.552 187.887C399.464 187.923 399.369 187.942 399.274 187.942H0.725976C0.533436 187.942 0.348779 187.865 0.212632 187.729C0.0764854 187.593 0 187.408 0 187.216C0 187.023 0.0764854 186.839 0.212632 186.702C0.348779 186.566 0.533436 186.49 0.725976 186.49H399.274C399.369 186.489 399.464 186.508 399.552 186.544C399.64 186.581 399.721 186.634 399.788 186.702C399.855 186.769 399.909 186.849 399.945 186.938C399.982 187.026 400 187.12 400 187.216Z" fill="#CCCCCC"/>
<path d="M77.5501 151.496H78.874V150.319H59.169V127.283H59.9071C59.8949 126.886 59.9071 126.49 59.9315 126.105H59.169V105.882C58.7785 105.918 58.3881 105.961 57.9976 105.998V126.105H35.4192V108.255C35.0288 108.292 34.6445 108.334 34.254 108.371V126.105H23.0105C23.3034 126.502 23.6023 126.892 23.9073 127.283H34.254V150.319H30.978C30.6851 150.721 30.3679 151.112 30.0263 151.496H34.254V169.871H19.9968C20.1676 170.268 20.3506 170.658 20.5459 171.043H34.254V186.489H35.4192V171.043H57.9976V186.489H59.169V171.043H78.874V169.871H59.169C59.1707 164.997 61.108 160.324 64.555 156.878C68.0019 153.432 72.6763 151.496 77.5502 151.496H77.5501ZM57.9976 169.871H35.4192V151.496H57.9976V169.871ZM35.4192 150.319V149.855C35.4205 143.868 37.7999 138.126 42.034 133.893C46.2682 129.66 52.0104 127.283 57.9976 127.283V150.319H35.4192Z" fill="#E6E6E6"/>
<path d="M94.2076 152.719C87.4867 143.352 74.8017 138.511 65.8748 141.907C56.9478 145.303 55.1595 155.65 61.8804 165.016C68.6013 174.383 88.385 189.117 97.312 185.721C106.239 182.326 100.929 162.086 94.2076 152.719ZM94.249 181.529C93.1501 183.14 90.4541 183.215 88.2274 181.696C86.0006 180.177 85.0863 177.64 86.1851 176.029C87.284 174.418 89.98 174.343 92.2067 175.862C94.4335 177.381 95.3478 179.918 94.249 181.529Z" fill="#3F3D56"/>
<path d="M86.6205 161.881C85.7835 162.558 84.9465 163.234 84.1096 163.911C83.0823 164.858 81.866 165.577 80.5408 166.02C78.7214 166.441 76.8193 166.328 75.0626 165.694C72.5017 164.867 70.2572 163.272 68.6336 161.126L70.4428 161.529C69.4829 160.418 68.7025 159.164 68.1296 157.812C67.7054 156.557 67.9421 155.284 69.0874 154.94C70.3984 154.546 72.5089 155.431 73.6096 154.795C75.513 153.696 72.3839 149.602 74.1184 148.339C75.129 147.603 77.1512 148.331 78.8368 149.053C80.9335 149.852 82.9206 150.913 84.7507 152.211C87.7449 154.523 89.4026 158.168 88.18 160.278C87.7618 160.902 87.2334 161.446 86.6205 161.881Z" fill="#FA7751"/>
<path d="M86.0038 168.905C84.54 169.105 82.8465 167.98 81.4341 166.942L81.0745 166.471C80.7804 165.57 80.6567 164.623 80.7097 163.676C80.7431 163.238 80.9245 162.824 81.224 162.502C81.5236 162.18 81.9236 161.97 82.3585 161.905C83.2171 161.792 84.3629 162.162 84.93 161.665C86.0265 160.705 83.4837 158.057 84.6464 157.159C85.2988 156.654 86.6853 157.301 87.2832 158.168C87.7714 158.976 87.9967 159.916 87.9281 160.858C87.9475 162.241 87.9669 163.624 87.9863 165.007C88.0481 165.824 87.9655 166.645 87.7421 167.433C87.6194 167.816 87.3914 168.158 87.084 168.418C86.7767 168.678 86.4024 168.847 86.0038 168.905Z" fill="#2F2E41"/>
<path d="M86.3706 173.514C84.3418 172.915 81.2478 170.824 78.6125 168.977L77.828 168.295C77.0064 167.363 76.3101 166.328 75.7567 165.215C75.4526 164.383 75.8441 163.896 77.1912 164.299C78.3837 164.655 80.262 165.667 80.8173 165.467C81.8911 165.081 76.7182 160.955 77.9226 160.67C78.5985 160.509 80.9806 161.938 82.3314 163.16C83.3262 164.043 84.1479 165.102 84.7544 166.286C85.5439 167.721 86.3334 169.156 87.1228 170.591C87.5996 171.308 87.9319 172.11 88.1009 172.955C88.1172 173.565 87.6018 173.877 86.3706 173.514Z" fill="#FF6584"/>
<path d="M57.2494 179.011L94.915 184.02C95.1204 184.047 95.3074 184.152 95.4376 184.313C95.5678 184.474 95.6312 184.679 95.6148 184.886C95.5984 185.092 95.5033 185.284 95.3493 185.423C95.1953 185.562 94.994 185.636 94.7869 185.63L58.0502 184.659L57.2494 179.011Z" fill="#3F3D56"/>
<path d="M46.4509 183.34C47.2687 182.139 48.2256 181.038 49.3017 180.061C49.851 179.566 50.4297 179.107 51.0135 178.665C51.2151 178.505 51.4241 178.35 51.6274 178.196C52.1116 177.828 52.5959 177.46 53.086 177.09C53.4966 176.774 53.9132 176.457 54.3255 176.148C54.9294 175.688 55.6094 175.206 56.3639 175.312C56.7087 175.392 57.0316 175.547 57.3091 175.767C57.5865 175.987 57.8118 176.265 57.9685 176.583C58.3036 177.241 58.5465 177.942 58.6903 178.667C59.0993 180.326 59.5024 181.988 59.9114 183.648L60.5181 184.298C59.6523 185.153 58.6436 185.851 57.5376 186.358C57.0721 186.547 56.5731 186.64 56.0708 186.631C55.5684 186.622 55.0731 186.511 54.6146 186.306C54.4144 186.209 54.225 186.092 54.0497 185.955C53.2848 185.35 52.8139 184.4 52.1408 183.674C51.9989 183.524 51.8479 183.383 51.6889 183.252C51.2242 182.859 50.6786 182.574 50.091 182.416C49.5033 182.258 48.8882 182.233 48.2894 182.34C47.5953 182.496 46.9586 182.842 46.4509 183.34Z" fill="#CCCCCC"/>
<path d="M46.4509 183.34C47.2687 182.138 48.2256 181.038 49.3017 180.06C49.851 179.566 50.4297 179.106 51.0135 178.665C51.2151 178.505 51.4241 178.35 51.6274 178.196C52.1116 177.828 52.5959 177.459 53.086 177.089C53.2448 177.355 53.3895 177.629 53.5197 177.91C54.7389 180.53 54.8277 183.457 54.6146 186.306C54.4144 186.209 54.225 186.091 54.0497 185.955C53.2847 185.35 52.8139 184.4 52.1408 183.673C51.9989 183.524 51.8479 183.383 51.6889 183.251C51.2242 182.859 50.6786 182.573 50.091 182.416C49.5033 182.258 48.8882 182.232 48.2894 182.34C47.5953 182.496 46.9586 182.842 46.4509 183.34Z" fill="#FA7751"/>
<path d="M346.823 70.2598C345.419 67.2385 347.648 63.8656 348.444 60.6131C349.928 54.544 345.745 47.9732 340.076 45.8702C334.406 43.7673 327.891 45.525 323.02 49.2049C318.246 52.8123 314.89 54.5117 311.601 59.6088C310.498 61.318 309.33 66.6248 309.122 68.6719C308.913 70.719 309.972 73.0647 311.903 73.5136C311.123 75.1688 312.474 77.0767 314.216 76.7403C317.912 76.0265 324.7 77.9889 324.7 77.9889C331.029 78.3512 337.358 78.7135 343.687 79.0758C345.308 79.1686 346.991 79.2529 348.448 78.357C348.851 78.121 349.198 77.8006 349.466 77.4177C349.733 77.0348 349.915 76.5986 349.998 76.1389C350.368 73.7416 347.792 72.3429 346.823 70.2598Z" fill="#2F2E41"/>
<path d="M342.94 178.849C331.696 189.446 319.755 188.807 307.187 177.899C300.253 177.714 294.741 172.699 294.9 166.72C295.059 160.741 300.83 156.026 307.764 156.211L343.517 157.162C350.451 157.346 355.963 162.361 355.804 168.34C355.645 174.319 349.874 179.034 342.94 178.849Z" fill="#2F2E41"/>
<path d="M351.603 96.6942L350.218 105.912L348.022 120.517L347.649 125.928L344.916 165.589C344.916 165.589 323.796 163.856 318.183 165.589C312.571 167.327 298.93 160.171 298.93 160.171C303.829 155.352 302.505 137.642 302.505 137.642L302.45 93.7721L314.84 89.6053L318.922 81.5708H333.563L337.223 90.1117L343.867 93.1498L346.893 94.5407L351.603 96.6942Z" fill="#3F3D56"/>
<path d="M293.268 241.567L286.178 242.724L278.336 215.929L288.8 214.219L293.268 241.567Z" fill="#FFB6B6"/>
<path d="M290.451 185.692C303.67 188.942 313.431 185.282 321.471 185.756C326.041 178.045 340.629 168.25 332.669 164.127C328.236 161.831 283.176 156.538 277.26 162.647C262.049 178.355 280.935 227.963 280.935 227.963L291.439 227.828L294.795 223.038L292.092 217.817L294.649 213.549L291.723 209.152L290.451 185.692Z" fill="#2F2E41"/>
<path d="M358.607 241.567L365.696 242.724L373.538 215.929L363.075 214.219L358.607 241.567Z" fill="#FFB6B6"/>
<path d="M361.424 172.27C354.108 182.999 342.438 184.754 330.404 185.756C325.834 178.045 311.246 168.25 319.206 164.127C323.638 161.831 368.699 143.116 374.614 149.225C389.825 164.934 370.939 227.963 370.939 227.963L360.435 227.828L357.079 223.038L359.783 217.817L357.225 213.549L360.152 209.152L361.424 172.27Z" fill="#2F2E41"/>
<path d="M359.227 231.611L369.741 233.764L368.554 238.197L376.572 247.626C376.969 248.092 377.205 248.672 377.249 249.282C377.292 249.892 377.139 250.499 376.812 251.016C376.485 251.533 376.002 251.931 375.433 252.154C374.863 252.377 374.238 252.411 373.647 252.253L361.327 248.954L360.378 244L358.375 248.164L353.73 246.92L359.227 231.611Z" fill="#2F2E41"/>
<path d="M298.145 246.92L293.5 248.164L291.496 244L290.547 248.954L278.227 252.253C277.637 252.411 277.011 252.377 276.442 252.154C275.873 251.931 275.389 251.533 275.063 251.016C274.736 250.499 274.583 249.892 274.626 249.282C274.669 248.672 274.906 248.092 275.302 247.626L283.321 238.197L282.134 233.764L292.647 231.611L298.145 246.92Z" fill="#2F2E41"/>
<path d="M326.847 77.4503C333.684 77.4503 339.227 71.9078 339.227 65.0708C339.227 58.2339 333.684 52.6914 326.847 52.6914C320.01 52.6914 314.468 58.2339 314.468 65.0708C314.468 71.9078 320.01 77.4503 326.847 77.4503Z" fill="#FFB6B6"/>
<path d="M319.774 61.188C316.504 61.1933 313.312 60.1863 310.636 58.3051L310.547 58.2425C310.547 55.049 311.816 51.9862 314.074 49.728C316.332 47.4698 319.395 46.2012 322.588 46.2012H327.503C329.074 46.203 330.629 46.5145 332.08 47.1181C333.53 47.7217 334.847 48.6054 335.955 49.7186C337.064 50.8318 337.942 52.1527 338.539 53.6056C339.136 55.0585 339.441 56.615 339.436 58.1859C339.426 58.9029 339.136 59.5876 338.628 60.0943C338.121 60.6009 337.436 60.8894 336.718 60.8983L320.057 61.1856C319.963 61.1872 319.868 61.188 319.774 61.188Z" fill="#2F2E41"/>
<path d="M348.474 199.258H311.199C310.2 199.257 309.242 198.86 308.536 198.153C307.829 197.447 307.432 196.489 307.431 195.49V161.385C307.432 160.386 307.829 159.428 308.536 158.722C309.242 158.016 310.2 157.618 311.199 157.617H348.474C349.473 157.618 350.431 158.016 351.137 158.722C351.843 159.428 352.241 160.386 352.242 161.385V195.49C352.241 196.489 351.843 197.447 351.137 198.153C350.431 198.86 349.473 199.257 348.474 199.258Z" fill="#E6E6E6"/>
<path d="M345.854 196.117H313.819C312.932 196.116 312.082 195.764 311.454 195.136C310.827 194.509 310.474 193.659 310.473 192.772V164.103C310.474 163.216 310.827 162.366 311.454 161.738C312.082 161.111 312.932 160.758 313.819 160.757H345.854C346.741 160.758 347.591 161.111 348.218 161.738C348.846 162.365 349.198 163.216 349.199 164.103V192.772C349.198 193.659 348.846 194.509 348.218 195.136C347.591 195.764 346.741 196.116 345.854 196.117Z" fill="white"/>
<path d="M342.658 169.104H317.015C316.793 169.104 316.58 169.016 316.423 168.859C316.266 168.702 316.178 168.49 316.178 168.268C316.178 168.046 316.266 167.833 316.423 167.677C316.58 167.52 316.793 167.432 317.015 167.432H342.658C342.88 167.432 343.093 167.52 343.249 167.677C343.406 167.833 343.494 168.046 343.494 168.268C343.494 168.49 343.406 168.702 343.249 168.859C343.093 169.016 342.88 169.104 342.658 169.104Z" fill="#FA7751"/>
<path d="M342.658 172.409H317.015C316.793 172.409 316.58 172.32 316.423 172.164C316.266 172.007 316.178 171.794 316.178 171.572C316.178 171.35 316.266 171.138 316.423 170.981C316.58 170.824 316.793 170.736 317.015 170.736H342.658C342.88 170.736 343.093 170.824 343.25 170.981C343.406 171.138 343.494 171.35 343.494 171.572C343.494 171.794 343.406 172.007 343.25 172.164C343.093 172.32 342.88 172.409 342.658 172.409Z" fill="#FA7751"/>
<path d="M328.13 175.713H317.015C316.793 175.713 316.58 175.625 316.423 175.468C316.266 175.311 316.178 175.099 316.178 174.877C316.178 174.655 316.266 174.442 316.423 174.285C316.58 174.129 316.793 174.041 317.015 174.041H328.13C328.352 174.041 328.565 174.129 328.722 174.285C328.879 174.442 328.967 174.655 328.967 174.877C328.967 175.099 328.879 175.311 328.722 175.468C328.565 175.625 328.352 175.713 328.13 175.713Z" fill="#FA7751"/>
<path d="M342.658 182.635H317.015C316.793 182.635 316.58 182.546 316.423 182.39C316.266 182.233 316.178 182.02 316.178 181.798C316.178 181.576 316.266 181.364 316.423 181.207C316.58 181.05 316.793 180.962 317.015 180.962H342.658C342.88 180.962 343.093 181.05 343.249 181.207C343.406 181.364 343.494 181.576 343.494 181.798C343.494 182.02 343.406 182.233 343.249 182.39C343.093 182.546 342.88 182.635 342.658 182.635Z" fill="#E4E4E4"/>
<path d="M342.658 185.939H317.015C316.793 185.939 316.58 185.851 316.423 185.694C316.266 185.537 316.178 185.325 316.178 185.103C316.178 184.881 316.266 184.668 316.423 184.512C316.58 184.355 316.793 184.267 317.015 184.267H342.658C342.88 184.267 343.093 184.355 343.25 184.512C343.406 184.668 343.494 184.881 343.494 185.103C343.494 185.325 343.406 185.537 343.25 185.694C343.093 185.851 342.88 185.939 342.658 185.939Z" fill="#E4E4E4"/>
<path d="M328.13 189.244H317.015C316.793 189.244 316.58 189.156 316.423 188.999C316.266 188.842 316.178 188.629 316.178 188.408C316.178 188.186 316.266 187.973 316.423 187.816C316.58 187.659 316.793 187.571 317.015 187.571H328.13C328.352 187.571 328.565 187.659 328.722 187.816C328.879 187.973 328.967 188.186 328.967 188.408C328.967 188.629 328.879 188.842 328.722 188.999C328.565 189.156 328.352 189.244 328.13 189.244Z" fill="#E4E4E4"/>
<path d="M354.305 121.835L343.092 121.927L342.268 141.885L333.157 153.04C332.048 153.226 331.013 153.716 330.166 154.454C329.318 155.192 328.691 156.149 328.353 157.222C328.016 158.294 327.981 159.438 328.253 160.529C328.526 161.619 329.094 162.613 329.895 163.401C330.697 164.189 331.701 164.74 332.796 164.993C333.891 165.246 335.035 165.191 336.101 164.835C337.167 164.479 338.114 163.835 338.837 162.975C339.56 162.115 340.031 161.071 340.198 159.96L352.749 142.561L354.305 121.835Z" fill="#FFB6B6"/>
<path d="M296.885 122.741L285.39 117.368L272.839 132.907L258.876 136.439C257.875 135.928 256.752 135.704 255.631 135.792C254.511 135.88 253.436 136.276 252.526 136.936C251.617 137.596 250.907 138.494 250.476 139.532C250.045 140.57 249.909 141.707 250.084 142.818C250.258 143.928 250.737 144.968 251.465 145.824C252.194 146.68 253.145 147.317 254.213 147.667C255.282 148.016 256.426 148.063 257.519 147.802C258.613 147.542 259.613 146.984 260.409 146.191L280.855 139.694L296.885 122.741Z" fill="#FFB6B6"/>
<path d="M333.041 76.4949L337.327 71.1479C337.79 70.6794 338.091 70.0754 338.187 69.4239C338.21 68.7702 337.594 68.0705 336.973 68.2754C336.396 68.4654 333.074 60.143 332.468 60.1447C331.838 60.1465 331.633 59.3077 331.625 58.6786C331.595 56.2948 333.533 58.8546 334.173 56.5582C334.814 54.2619 337.311 56.2363 339.463 55.2107C341.615 54.1851 344.539 54.651 345.87 56.6292C346.856 58.096 346.82 60.0018 346.689 61.7645C346.385 65.8551 345.77 69.9166 344.848 73.9136C344.621 74.8954 344.284 75.9926 343.379 76.436C342.881 76.6333 342.345 76.7135 341.811 76.6704L335.212 76.6379" fill="#2F2E41"/>
<path d="M343.324 53.5084C346.693 53.5084 349.425 50.777 349.425 47.4078C349.425 44.0385 346.693 41.3071 343.324 41.3071C339.955 41.3071 337.223 44.0385 337.223 47.4078C337.223 50.777 339.955 53.5084 343.324 53.5084Z" fill="#2F2E41"/>
<path d="M357.044 121.951C356.386 123.098 354.982 123.556 353.701 123.909C351.969 124.391 351.462 124.879 349.73 125.361C349.04 125.557 348.345 125.752 347.649 125.929C346.508 126.236 345.349 126.474 344.178 126.642C343.196 126.783 342.037 126.783 341.396 126.02C340.971 125.365 340.8 124.578 340.914 123.806C341.164 114.435 341.417 105.065 341.671 95.694L342.202 95.877C342.441 95.7194 342.689 95.5767 342.946 95.45C344.167 94.8278 345.523 94.5156 346.893 94.541C347.677 94.5473 348.456 94.6686 349.205 94.9009C350.368 95.27 351.436 95.888 352.336 96.7119C353.236 97.5357 353.945 98.5457 354.415 99.6716C355.023 101.371 355.313 103.168 355.269 104.973C355.275 105.248 355.275 105.522 355.281 105.797C355.318 108.139 354.128 110.482 354.165 112.825C354.137 113.484 354.228 114.143 354.433 114.771C354.677 115.393 355.153 115.911 355.336 116.558C355.519 117.199 355.22 118.077 354.555 118.126C355.025 118.076 355.5 118.157 355.926 118.36C356.353 118.562 356.715 118.879 356.973 119.275C357.23 119.671 357.374 120.131 357.386 120.603C357.399 121.075 357.281 121.542 357.044 121.951L357.044 121.951Z" fill="#3F3D56"/>
<path d="M302.501 93.8254C303.721 93.8988 304.91 94.2406 305.982 94.8264C307.055 95.4122 307.985 96.2275 308.706 97.2142C309.427 98.2009 309.922 99.3347 310.154 100.535C310.387 101.734 310.352 102.971 310.051 104.155C309.541 106.166 308.306 107.903 307.096 109.587L302.995 115.294C302.579 115.806 302.259 116.388 302.051 117.014C301.878 117.661 301.946 118.362 301.71 118.989C301.474 119.616 300.713 120.141 300.148 119.782C300.555 120.022 300.888 120.369 301.11 120.786C301.332 121.203 301.434 121.673 301.406 122.145C301.377 122.616 301.219 123.071 300.948 123.458C300.678 123.845 300.305 124.15 299.872 124.339C298.656 124.87 297.258 124.396 296.018 123.922L290.983 121.995C289.192 121.356 287.447 120.595 285.76 119.719C284.888 119.24 283.958 118.551 283.896 117.559C283.848 116.786 284.501 116.193 284.829 115.492C288.929 106.712 294.96 99.7256 302.45 93.7725L302.501 93.8254Z" fill="#3F3D56"/>
<path d="M312.182 208.8C316.963 208.8 320.838 204.925 320.838 200.144C320.838 195.363 316.963 191.488 312.182 191.488C307.401 191.488 303.526 195.363 303.526 200.144C303.526 204.925 307.401 208.8 312.182 208.8Z" fill="white"/>
<path d="M312.182 208.906C310.449 208.906 308.755 208.392 307.314 207.429C305.873 206.467 304.75 205.098 304.087 203.497C303.424 201.896 303.25 200.134 303.589 198.435C303.927 196.735 304.761 195.174 305.986 193.949C307.212 192.723 308.773 191.889 310.473 191.551C312.172 191.213 313.934 191.386 315.535 192.049C317.136 192.712 318.504 193.835 319.467 195.276C320.43 196.717 320.944 198.411 320.944 200.144C320.941 202.467 320.017 204.694 318.375 206.337C316.732 207.979 314.505 208.903 312.182 208.906Z" fill="#FA7751"/>
<path d="M311.534 203.604C311.515 203.604 311.497 203.603 311.479 203.602C311.316 203.594 311.156 203.551 311.011 203.476C310.866 203.401 310.74 203.295 310.639 203.166L309.193 201.306C309.102 201.189 309.034 201.055 308.995 200.911C308.955 200.768 308.944 200.618 308.963 200.471C308.981 200.323 309.029 200.18 309.102 200.051C309.176 199.922 309.274 199.808 309.391 199.717L309.443 199.676C309.561 199.585 309.695 199.518 309.839 199.478C309.982 199.439 310.132 199.428 310.279 199.446C310.427 199.465 310.57 199.512 310.699 199.586C310.828 199.659 310.942 199.758 311.033 199.875C311.106 199.969 311.199 200.046 311.304 200.101C311.41 200.155 311.526 200.187 311.645 200.193C311.763 200.198 311.882 200.178 311.992 200.134C312.103 200.09 312.202 200.022 312.284 199.936L315.221 196.835C315.428 196.617 315.713 196.491 316.013 196.482C316.313 196.474 316.604 196.585 316.823 196.792L316.871 196.838C316.979 196.94 317.065 197.062 317.126 197.198C317.187 197.334 317.22 197.48 317.224 197.629C317.228 197.778 317.203 197.926 317.15 198.065C317.096 198.204 317.016 198.331 316.914 198.439L312.356 203.25C312.25 203.362 312.123 203.451 311.981 203.511C311.84 203.572 311.688 203.604 311.534 203.604Z" fill="white"/>
<path d="M250.462 152.356L228.907 125.963C228.17 125.059 227.822 123.9 227.939 122.74C228.056 121.58 228.629 120.514 229.531 119.775L235.283 115.077C236.187 114.341 237.346 113.993 238.506 114.11C239.666 114.227 240.732 114.8 241.471 115.702L263.026 142.095C263.763 142.999 264.11 144.158 263.993 145.318C263.876 146.478 263.304 147.544 262.402 148.283L256.65 152.98C255.746 153.717 254.587 154.065 253.427 153.948C252.267 153.831 251.2 153.258 250.462 152.356Z" fill="#3F3D56"/>
<path d="M261.948 142.602L256.177 135.537L253.169 131.859L240.388 116.211C240.192 115.969 239.95 115.77 239.676 115.622C239.402 115.475 239.102 115.383 238.792 115.352C238.483 115.321 238.17 115.351 237.873 115.441C237.575 115.53 237.298 115.678 237.057 115.875L231.304 120.572C231.063 120.769 230.863 121.011 230.716 121.285C230.569 121.559 230.477 121.859 230.446 122.168C230.415 122.478 230.445 122.79 230.534 123.088C230.624 123.386 230.772 123.663 230.969 123.903L230.981 123.922L241.773 137.136L252.522 150.301C252.921 150.787 253.496 151.094 254.122 151.157C254.747 151.22 255.372 151.033 255.859 150.636L261.606 145.939C262.092 145.541 262.401 144.966 262.465 144.341C262.529 143.716 262.343 143.09 261.948 142.602Z" fill="#FA7751"/>
<path d="M245.104 130.376C245.105 131.683 244.805 132.972 244.228 134.144C243.65 135.317 242.81 136.34 241.773 137.135L230.981 123.921C232.218 122.849 233.736 122.155 235.356 121.922C236.976 121.689 238.629 121.927 240.118 122.607C241.607 123.287 242.868 124.381 243.752 125.759C244.636 127.136 245.106 128.739 245.104 130.376Z" fill="#3F3D56"/>
<path d="M246.698 125.985C246.99 127.035 246.235 128.295 244.572 129.532C244.239 129.78 243.766 129.897 243.49 130.255C242.907 131.064 242.112 131.698 241.193 132.085C240.274 132.473 239.266 132.6 238.279 132.453C238.163 132.379 238.047 132.302 237.933 132.223C237.954 132.218 237.975 132.212 237.996 132.206C239.966 131.682 241.85 130.88 243.592 129.823C243.872 129.646 244.305 129.579 244.384 129.28C245.024 126.88 246.46 126.707 246.395 126.069C246.301 125.136 244.912 124.541 243.016 124.356C242.828 124.337 242.636 124.323 242.44 124.314C242.362 124.203 242.282 124.095 242.199 123.99C242.49 123.999 242.773 124.017 243.046 124.043C245.109 124.245 246.406 124.935 246.698 125.985Z" fill="white"/>
<path d="M237.743 127.551C238.907 127.551 239.851 126.607 239.851 125.442C239.851 124.278 238.907 123.334 237.743 123.334C236.578 123.334 235.634 124.278 235.634 125.442C235.634 126.607 236.578 127.551 237.743 127.551Z" fill="white"/>
<path d="M248.833 139.384C249.138 139.384 249.386 139.137 249.386 138.831C249.386 138.525 249.138 138.277 248.833 138.277C248.527 138.277 248.279 138.525 248.279 138.831C248.279 139.137 248.527 139.384 248.833 139.384Z" fill="white"/>
<path d="M257.983 141.825C258.289 141.825 258.537 141.577 258.537 141.271C258.537 140.965 258.289 140.717 257.983 140.717C257.678 140.717 257.43 140.965 257.43 141.271C257.43 141.577 257.678 141.825 257.983 141.825Z" fill="white"/>
<path d="M237.851 119.253C238.157 119.253 238.405 119.005 238.405 118.699C238.405 118.393 238.157 118.145 237.851 118.145C237.546 118.145 237.298 118.393 237.298 118.699C237.298 119.005 237.546 119.253 237.851 119.253Z" fill="white"/>
<path d="M253.713 145.485C254.019 145.485 254.267 145.237 254.267 144.931C254.267 144.625 254.019 144.377 253.713 144.377C253.407 144.377 253.159 144.625 253.159 144.931C253.159 145.237 253.407 145.485 253.713 145.485Z" fill="white"/>
<path d="M240.395 127.945C240.515 127.945 240.612 127.848 240.612 127.728C240.612 127.608 240.515 127.511 240.395 127.511C240.275 127.511 240.178 127.608 240.178 127.728C240.178 127.848 240.275 127.945 240.395 127.945Z" fill="#F0F0F0"/>
<path d="M244.055 132.215C244.175 132.215 244.272 132.118 244.272 131.999C244.272 131.879 244.175 131.782 244.055 131.782C243.936 131.782 243.839 131.879 243.839 131.999C243.839 132.118 243.936 132.215 244.055 132.215Z" fill="#F0F0F0"/>
<path d="M233.074 124.895C233.194 124.895 233.291 124.797 233.291 124.678C233.291 124.558 233.194 124.461 233.074 124.461C232.954 124.461 232.857 124.558 232.857 124.678C232.857 124.797 232.954 124.895 233.074 124.895Z" fill="#F0F0F0"/>
<path d="M256.177 135.537C255.952 135.826 255.665 136.061 255.337 136.224C255.009 136.387 254.648 136.474 254.282 136.479C253.916 136.483 253.553 136.405 253.222 136.251C252.89 136.096 252.597 135.868 252.365 135.585C252.133 135.301 251.968 134.969 251.882 134.613C251.797 134.257 251.792 133.886 251.869 133.528C251.947 133.17 252.104 132.834 252.329 132.545C252.554 132.256 252.841 132.021 253.169 131.858L256.177 135.537Z" fill="#FF6584"/>
</g>
<defs>
<clipPath id="clip0_667_175">
<rect width="400" height="252.351" fill="white"/>
</clipPath>
</defs>
</svg>
