<?xml version="1.0" encoding="UTF-8" standalone="no"?>
<svg
   viewBox="0 0 64.17 64.17"
   version="1.1"
   id="svg340"
   sodipodi:docname="4ef535211b9b4fc5fc27c7562a9eb597.svg"
   inkscape:version="1.2 (dc2aedaf03, 2022-05-15)"
   width="64.169998"
   height="64.169998"
   xmlns:inkscape="http://www.inkscape.org/namespaces/inkscape"
   xmlns:sodipodi="http://sodipodi.sourceforge.net/DTD/sodipodi-0.dtd"
   xmlns="http://www.w3.org/2000/svg"
   xmlns:svg="http://www.w3.org/2000/svg"
   xmlns:rdf="http://www.w3.org/1999/02/22-rdf-syntax-ns#"
   xmlns:cc="http://creativecommons.org/ns#"
   xmlns:dc="http://purl.org/dc/elements/1.1/">
  <sodipodi:namedview
     id="namedview342"
     pagecolor="#ffffff"
     bordercolor="#000000"
     borderopacity="0.25"
     inkscape:showpageshadow="2"
     inkscape:pageopacity="0.0"
     inkscape:pagecheckerboard="0"
     inkscape:deskcolor="#d1d1d1"
     showgrid="false"
     inkscape:zoom="4.8321044"
     inkscape:cx="8.7953397"
     inkscape:cy="45.942716"
     inkscape:window-width="1920"
     inkscape:window-height="1129"
     inkscape:window-x="1912"
     inkscape:window-y="-8"
     inkscape:window-maximized="1"
     inkscape:current-layer="Ebene_2" />
  <defs
     id="defs298">
    <style
       id="style296">.cls-1{fill:#141e8c;}.cls-2{fill:#fff;}</style>
  </defs>
  <title
     id="title300">zeiss-logo</title>
  <g
     id="Ebene_2"
     data-name="Ebene 2"
     transform="translate(-16.15)">
    <path
       class="cls-1"
       d="m 80.32,64.17 a 78.35838,78.35838 0 0 0 -64.17,0 V 0 h 64.17 z"
       id="path302"
       style="display:inline" />
    <path
       class="cls-2"
       d="m 23.76,19.58 a 3.28735,3.28735 0 0 0 -3.26,3.06 h -1.44 v -4.53 h 11.23 c 0,0 0.09,3.5 -3.23,7.21 0,0 -3.16,3.67 -3.24,5.28 h 1.82 c 2.61,0 2.88,-3.06 2.88,-3.06 h 1.5 v 4.54 H 18.54 c 0,0 -0.42,-3.44 3.56,-7.61 0,0 2.45,-2.74 3.02,-4.9 z"
       id="path304"
       style="display:inline" />
    <path
       class="cls-2"
       d="m 43.37,32.08 v -4.54 h -1.5 c 0,0 -0.28,3.06 -2.89,3.06 h -1.5 v -4.76 h 0.53 a 1.12251,1.12251 0 0 1 1.13,1.13 v 0.56 h 1.48 v -4.89 h -1.48 v 0.57 a 1.12251,1.12251 0 0 1 -1.13,1.13 h -0.53 v -4.76 h 1.5 c 2.61,0 2.89,3.06 2.89,3.06 h 1.5 V 18.1 H 31.54 v 1.49 h 0.34 A 1.11816,1.11816 0 0 1 33,20.71 v 8.76 a 1.11816,1.11816 0 0 1 -1.12,1.12 h -0.34 v 1.48 z"
       id="path308"
       style="display:inline" />
    <path
       class="cls-2"
       d="M 52.36,32.07 V 30.59 H 52.02 A 1.11816,1.11816 0 0 1 50.9,29.47 v -8.76 a 1.11816,1.11816 0 0 1 1.12,-1.12 h 0.34 v -1.48 h -7.45 v 1.48 h 0.34 a 1.12036,1.12036 0 0 1 1.13,1.12 v 8.76 a 1.12036,1.12036 0 0 1 -1.13,1.12 h -0.34 v 1.48 z"
       id="path306"
       style="display:inline" />
    <path
       class="cls-2"
       d="m 60.18,19.58 a 3.26451,3.26451 0 0 1 3.25,3.06 h 1.45 V 18.11 H 54.15 c 0,0 -1.7,2.22 2.74,7.21 0,0 3.15,3.67 3.23,5.28 h -1.81 c -2.61,0 -2.89,-3.06 -2.89,-3.06 h -1.51 v 4.54 h 10.82 c 0,0 1.97,-2.12 -2.9,-7.61 0,0 -2.55,-2.62 -3.02,-4.9 z"
       id="path310"
       style="display:inline" />
    <path
       class="cls-2"
       d="m 72.73,19.58 a 3.2743,3.2743 0 0 1 3.25,3.06 h 1.44 V 18.11 H 66.7 c 0,0 -1.7,2.22 2.74,7.21 0,0 3.15,3.67 3.23,5.28 h -1.81 c -2.61,0 -2.89,-3.06 -2.89,-3.06 h -1.5 v 4.54 h 10.82 c 0,0 1.96,-2.12 -2.9,-7.61 0,0 -2.55,-2.62 -3.01,-4.9 z"
       id="path312"
       style="display:inline" />
  </g>
  <metadata
     id="metadata1142">
    <rdf:RDF>
      <cc:Work
         rdf:about="">
        <dc:title>zeiss-logo</dc:title>
      </cc:Work>
    </rdf:RDF>
  </metadata>
</svg>
